<svg width="177" height="173" viewBox="0 0 177 173" fill="none" xmlns="http://www.w3.org/2000/svg">
<path d="M86.334 172.976C74.4058 172.976 63.1961 170.712 52.705 166.185C42.2139 161.658 33.088 155.515 25.3275 147.754C17.5669 139.993 11.4232 130.868 6.89619 120.376C2.36921 109.885 0.105713 98.6757 0.105713 86.7474C0.105713 74.8192 2.36921 63.6095 6.89619 53.1184C11.4232 42.6273 17.5669 33.5014 25.3275 25.7409C33.088 17.9803 42.2139 11.8366 52.705 7.30958C63.1961 2.7826 74.4058 0.519104 86.334 0.519104C107.316 0.519104 125.676 7.09401 141.412 20.2438C157.149 33.3937 166.958 49.8848 170.838 69.7173H153.161C150.43 59.2262 145.508 49.8489 138.394 41.5853C131.281 33.3218 122.55 27.1062 112.203 22.9385V26.3876C112.203 31.1302 110.514 35.1901 107.137 38.5674C103.759 41.9446 99.6994 43.6333 94.9569 43.6333H77.7112V60.8789C77.7112 63.3221 76.8848 65.37 75.2321 67.0227C73.5794 68.6754 71.5315 69.5018 69.0884 69.5018H51.8427V86.7474H69.0884V112.616H60.4655L19.0759 71.2263C18.6448 73.8132 18.2496 76.4 17.8903 78.9869C17.531 81.5737 17.3514 84.1606 17.3514 86.7474C17.3514 105.574 23.9622 121.742 37.1839 135.251C50.4056 148.76 66.7889 155.586 86.334 155.73V172.976ZM164.802 168.664L137.209 141.071C134.191 142.796 130.957 144.233 127.508 145.383C124.059 146.532 120.394 147.107 116.514 147.107C105.735 147.107 96.5736 143.335 89.0287 135.79C81.4837 128.245 77.7112 119.083 77.7112 108.305C77.7112 97.526 81.4837 88.3642 89.0287 80.8192C96.5736 73.2743 105.735 69.5018 116.514 69.5018C127.292 69.5018 136.454 73.2743 143.999 80.8192C151.544 88.3642 155.317 97.526 155.317 108.305C155.317 112.185 154.742 115.849 153.592 119.299C152.442 122.748 151.005 125.981 149.281 128.999L176.874 156.592L164.802 168.664ZM116.514 129.862C122.55 129.862 127.652 127.778 131.819 123.61C135.987 119.442 138.071 114.34 138.071 108.305C138.071 102.269 135.987 97.1667 131.819 92.999C127.652 88.8313 122.55 86.7474 116.514 86.7474C110.478 86.7474 105.376 88.8313 101.208 92.999C97.0407 97.1667 94.9569 102.269 94.9569 108.305C94.9569 114.34 97.0407 119.442 101.208 123.61C105.376 127.778 110.478 129.862 116.514 129.862Z" fill="#2F2F2F"/>
</svg>
