<svg width="669" height="297" viewBox="0 0 669 297" fill="none" xmlns="http://www.w3.org/2000/svg">
<rect x="223.748" y="1.09158" width="214.864" height="107.246" rx="6.14177" fill="#222222" stroke="#CDCDCD" stroke-width="1.75479"/>
<rect x="223.748" y="188.128" width="214.864" height="107.246" rx="6.14177" fill="#222222" stroke="#CDCDCD" stroke-width="1.75479"/>
<rect x="199.948" y="26.9771" width="262.464" height="131.198" rx="6.14177" fill="#222222" stroke="#CDCDCD" stroke-width="1.75479"/>
<rect x="199.948" y="138.291" width="262.464" height="131.198" rx="6.14177" fill="#222222" stroke="#CDCDCD" stroke-width="1.75479"/>
<rect x="184.877" y="64.9164" width="293.245" height="166.633" rx="6.14177" fill="#222222" stroke="#CDCDCD" stroke-width="1.75479"/>
<path d="M4.80615 164.951V132.037H24.6704V135.573H8.79186V146.694H23.6419V150.23H8.79186V161.415H24.9276V164.951H4.80615ZM34.1687 140.265L40.0829 150.358L45.9972 140.265H50.3687L42.3972 152.608L50.3687 164.951H45.9972L40.0829 155.373L34.1687 164.951H29.7972L37.6401 152.608L29.7972 140.265H34.1687ZM55.7807 174.208V140.265H59.445V144.187H59.895C60.1736 143.758 60.5593 143.212 61.0521 142.548C61.5557 141.873 62.2736 141.273 63.2057 140.748C64.1486 140.212 65.4236 139.944 67.0307 139.944C69.1093 139.944 70.9414 140.464 72.5271 141.503C74.1129 142.542 75.3504 144.015 76.2396 145.923C77.1289 147.83 77.5736 150.08 77.5736 152.673C77.5736 155.287 77.1289 157.553 76.2396 159.471C75.3504 161.378 74.1182 162.856 72.5432 163.906C70.9682 164.946 69.1521 165.465 67.095 165.465C65.5093 165.465 64.2396 165.203 63.2861 164.678C62.3325 164.142 61.5986 163.537 61.0843 162.862C60.57 162.176 60.1736 161.608 59.895 161.158H59.5736V174.208H55.7807ZM59.5093 152.608C59.5093 154.473 59.7825 156.117 60.3289 157.542C60.8754 158.956 61.6736 160.065 62.7236 160.869C63.7736 161.662 65.0593 162.058 66.5807 162.058C68.1664 162.058 69.4896 161.64 70.5504 160.805C71.6218 159.958 72.4254 158.823 72.9611 157.398C73.5075 155.962 73.7807 154.365 73.7807 152.608C73.7807 150.873 73.5129 149.308 72.9771 147.915C72.4521 146.512 71.6539 145.403 70.5825 144.589C69.5218 143.764 68.1879 143.351 66.5807 143.351C65.0379 143.351 63.7414 143.742 62.6914 144.524C61.6414 145.296 60.8486 146.378 60.3129 147.771C59.7771 149.153 59.5093 150.765 59.5093 152.608ZM87.1521 132.037V164.951H83.3593V132.037H87.1521ZM104.128 165.465C101.899 165.465 99.9437 164.935 98.2615 163.874C96.5901 162.814 95.2829 161.33 94.3401 159.423C93.4079 157.515 92.9419 155.287 92.9419 152.737C92.9419 150.165 93.4079 147.921 94.3401 146.003C95.2829 144.085 96.5901 142.596 98.2615 141.535C99.9437 140.474 101.899 139.944 104.128 139.944C106.356 139.944 108.306 140.474 109.978 141.535C111.66 142.596 112.967 144.085 113.899 146.003C114.842 147.921 115.313 150.165 115.313 152.737C115.313 155.287 114.842 157.515 113.899 159.423C112.967 161.33 111.66 162.814 109.978 163.874C108.306 164.935 106.356 165.465 104.128 165.465ZM104.128 162.058C105.82 162.058 107.213 161.624 108.306 160.756C109.399 159.889 110.208 158.748 110.733 157.333C111.258 155.919 111.52 154.387 111.52 152.737C111.52 151.087 111.258 149.549 110.733 148.124C110.208 146.699 109.399 145.548 108.306 144.669C107.213 143.79 105.82 143.351 104.128 143.351C102.435 143.351 101.042 143.79 99.949 144.669C98.8562 145.548 98.0472 146.699 97.5222 148.124C96.9972 149.549 96.7347 151.087 96.7347 152.737C96.7347 154.387 96.9972 155.919 97.5222 157.333C98.0472 158.748 98.8562 159.889 99.949 160.756C101.042 161.624 102.435 162.058 104.128 162.058ZM121.103 164.951V140.265H124.767V143.994H125.024C125.474 142.773 126.289 141.781 127.467 141.021C128.646 140.26 129.974 139.88 131.453 139.88C131.732 139.88 132.08 139.885 132.498 139.896C132.916 139.906 133.232 139.923 133.446 139.944V143.801C133.317 143.769 133.023 143.721 132.562 143.656C132.112 143.581 131.635 143.544 131.132 143.544C129.932 143.544 128.86 143.796 127.917 144.299C126.985 144.792 126.246 145.478 125.699 146.356C125.164 147.224 124.896 148.215 124.896 149.33V164.951H121.103ZM147.541 165.465C145.162 165.465 143.11 164.94 141.385 163.89C139.671 162.83 138.348 161.351 137.416 159.455C136.494 157.548 136.033 155.33 136.033 152.801C136.033 150.273 136.494 148.044 137.416 146.115C138.348 144.176 139.644 142.665 141.305 141.583C142.976 140.49 144.926 139.944 147.155 139.944C148.441 139.944 149.71 140.158 150.964 140.587C152.217 141.015 153.358 141.712 154.387 142.676C155.416 143.63 156.235 144.894 156.846 146.469C157.457 148.044 157.762 149.983 157.762 152.287V153.894H138.733V150.615H153.905C153.905 149.223 153.626 147.98 153.069 146.887C152.523 145.794 151.741 144.931 150.723 144.299C149.716 143.667 148.526 143.351 147.155 143.351C145.644 143.351 144.337 143.726 143.233 144.476C142.141 145.215 141.299 146.18 140.71 147.369C140.121 148.558 139.826 149.833 139.826 151.194V153.38C139.826 155.244 140.148 156.824 140.791 158.121C141.444 159.406 142.349 160.387 143.507 161.062C144.664 161.726 146.008 162.058 147.541 162.058C148.537 162.058 149.437 161.919 150.241 161.64C151.055 161.351 151.757 160.923 152.346 160.355C152.935 159.776 153.391 159.058 153.712 158.201L157.376 159.23C156.991 160.473 156.342 161.565 155.432 162.508C154.521 163.44 153.396 164.169 152.057 164.694C150.717 165.208 149.212 165.465 147.541 165.465Z" fill="white"/>
<path d="M523.915 165.53C522.351 165.53 520.931 165.235 519.656 164.646C518.381 164.046 517.369 163.183 516.619 162.058C515.869 160.923 515.494 159.551 515.494 157.944C515.494 156.53 515.772 155.383 516.33 154.505C516.887 153.615 517.631 152.919 518.563 152.415C519.496 151.912 520.524 151.537 521.649 151.29C522.785 151.033 523.926 150.83 525.072 150.68C526.572 150.487 527.788 150.342 528.721 150.246C529.663 150.139 530.349 149.962 530.778 149.715C531.217 149.469 531.437 149.04 531.437 148.43V148.301C531.437 146.715 531.003 145.483 530.135 144.605C529.278 143.726 527.976 143.287 526.23 143.287C524.419 143.287 522.999 143.683 521.971 144.476C520.942 145.269 520.219 146.115 519.801 147.015L516.201 145.73C516.844 144.23 517.701 143.062 518.772 142.226C519.855 141.38 521.033 140.79 522.308 140.458C523.594 140.115 524.858 139.944 526.101 139.944C526.894 139.944 527.805 140.04 528.833 140.233C529.872 140.415 530.874 140.796 531.838 141.374C532.813 141.953 533.622 142.826 534.265 143.994C534.908 145.162 535.23 146.726 535.23 148.687V164.951H531.437V161.608H531.244C530.987 162.144 530.558 162.717 529.958 163.328C529.358 163.939 528.56 164.458 527.563 164.887C526.567 165.315 525.351 165.53 523.915 165.53ZM524.494 162.123C525.994 162.123 527.258 161.828 528.287 161.239C529.326 160.649 530.108 159.889 530.633 158.956C531.169 158.024 531.437 157.044 531.437 156.015V152.544C531.276 152.737 530.922 152.914 530.376 153.074C529.84 153.224 529.219 153.358 528.512 153.476C527.815 153.583 527.135 153.68 526.471 153.765C525.817 153.84 525.287 153.905 524.88 153.958C523.894 154.087 522.972 154.296 522.115 154.585C521.269 154.864 520.583 155.287 520.058 155.855C519.544 156.412 519.287 157.173 519.287 158.137C519.287 159.455 519.774 160.451 520.749 161.126C521.735 161.79 522.983 162.123 524.494 162.123ZM542.152 164.951V140.265H545.817V143.994H546.074C546.524 142.773 547.338 141.781 548.517 141.021C549.695 140.26 551.024 139.88 552.502 139.88C552.781 139.88 553.129 139.885 553.547 139.896C553.965 139.906 554.281 139.923 554.495 139.944V143.801C554.367 143.769 554.072 143.721 553.611 143.656C553.161 143.581 552.684 143.544 552.181 143.544C550.981 143.544 549.909 143.796 548.967 144.299C548.034 144.792 547.295 145.478 546.749 146.356C546.213 147.224 545.945 148.215 545.945 149.33V164.951H542.152ZM568.268 165.465C565.954 165.465 563.961 164.919 562.29 163.826C560.618 162.733 559.333 161.228 558.433 159.31C557.533 157.392 557.083 155.201 557.083 152.737C557.083 150.23 557.543 148.017 558.465 146.099C559.397 144.171 560.693 142.665 562.354 141.583C564.026 140.49 565.976 139.944 568.204 139.944C569.94 139.944 571.504 140.265 572.897 140.908C574.29 141.551 575.431 142.451 576.32 143.608C577.209 144.765 577.761 146.115 577.976 147.658H574.183C573.893 146.533 573.251 145.537 572.254 144.669C571.268 143.79 569.94 143.351 568.268 143.351C566.79 143.351 565.493 143.737 564.379 144.508C563.276 145.269 562.413 146.346 561.792 147.739C561.181 149.121 560.876 150.744 560.876 152.608C560.876 154.515 561.176 156.176 561.776 157.59C562.386 159.005 563.243 160.103 564.347 160.885C565.461 161.667 566.768 162.058 568.268 162.058C569.254 162.058 570.149 161.887 570.952 161.544C571.756 161.201 572.436 160.708 572.993 160.065C573.551 159.423 573.947 158.651 574.183 157.751H577.976C577.761 159.208 577.231 160.521 576.384 161.689C575.549 162.846 574.44 163.767 573.058 164.453C571.686 165.128 570.09 165.465 568.268 165.465ZM587.313 150.101V164.951H583.52V132.037H587.313V144.123H587.634C588.213 142.848 589.081 141.835 590.238 141.085C591.406 140.324 592.959 139.944 594.899 139.944C596.581 139.944 598.054 140.281 599.318 140.956C600.583 141.621 601.563 142.644 602.259 144.026C602.967 145.398 603.32 147.144 603.32 149.265V164.951H599.527V149.523C599.527 147.562 599.018 146.046 598.001 144.974C596.993 143.892 595.595 143.351 593.806 143.351C592.563 143.351 591.449 143.614 590.463 144.139C589.488 144.664 588.717 145.43 588.149 146.437C587.592 147.444 587.313 148.665 587.313 150.101ZM610.259 164.951V140.265H614.052V164.951H610.259ZM612.188 136.151C611.448 136.151 610.811 135.899 610.275 135.396C609.75 134.892 609.488 134.287 609.488 133.58C609.488 132.873 609.75 132.267 610.275 131.764C610.811 131.26 611.448 131.008 612.188 131.008C612.927 131.008 613.559 131.26 614.084 131.764C614.62 132.267 614.888 132.873 614.888 133.58C614.888 134.287 614.62 134.892 614.084 135.396C613.559 135.899 612.927 136.151 612.188 136.151ZM641.184 140.265L632.056 164.951H628.199L619.07 140.265H623.184L629.999 159.937H630.256L637.07 140.265H641.184ZM655.657 165.465C653.278 165.465 651.226 164.94 649.501 163.89C647.787 162.83 646.464 161.351 645.532 159.455C644.61 157.548 644.15 155.33 644.15 152.801C644.15 150.273 644.61 148.044 645.532 146.115C646.464 144.176 647.76 142.665 649.421 141.583C651.093 140.49 653.043 139.944 655.271 139.944C656.557 139.944 657.826 140.158 659.08 140.587C660.334 141.015 661.475 141.712 662.503 142.676C663.532 143.63 664.351 144.894 664.962 146.469C665.573 148.044 665.878 149.983 665.878 152.287V153.894H646.85V150.615H662.021C662.021 149.223 661.743 147.98 661.185 146.887C660.639 145.794 659.857 144.931 658.839 144.299C657.832 143.667 656.643 143.351 655.271 143.351C653.76 143.351 652.453 143.726 651.35 144.476C650.257 145.215 649.416 146.18 648.826 147.369C648.237 148.558 647.943 149.833 647.943 151.194V153.38C647.943 155.244 648.264 156.824 648.907 158.121C649.56 159.406 650.466 160.387 651.623 161.062C652.78 161.726 654.125 162.058 655.657 162.058C656.653 162.058 657.553 161.919 658.357 161.64C659.171 161.351 659.873 160.923 660.462 160.355C661.051 159.776 661.507 159.058 661.828 158.201L665.493 159.23C665.107 160.473 664.459 161.565 663.548 162.508C662.637 163.44 661.512 164.169 660.173 164.694C658.834 165.208 657.328 165.465 655.657 165.465Z" fill="white"/>
<path d="M259.528 140.265V143.48H246.735V140.265H259.528ZM250.463 134.351H254.256V157.88C254.256 158.951 254.412 159.755 254.722 160.29C255.044 160.815 255.451 161.169 255.944 161.351C256.447 161.523 256.978 161.608 257.535 161.608C257.953 161.608 258.295 161.587 258.563 161.544C258.831 161.49 259.045 161.448 259.206 161.415L259.978 164.823C259.72 164.919 259.362 165.015 258.901 165.112C258.44 165.219 257.856 165.273 257.149 165.273C256.078 165.273 255.028 165.042 253.999 164.581C252.981 164.121 252.135 163.419 251.46 162.476C250.795 161.533 250.463 160.344 250.463 158.908V134.351ZM269.556 150.101V164.951H265.763V132.037H269.556V144.123H269.878C270.456 142.848 271.324 141.835 272.481 141.085C273.649 140.324 275.203 139.944 277.142 139.944C278.824 139.944 280.297 140.281 281.562 140.956C282.826 141.621 283.806 142.644 284.503 144.026C285.21 145.398 285.563 147.144 285.563 149.265V164.951H281.77V149.523C281.77 147.562 281.262 146.046 280.244 144.974C279.237 143.892 277.838 143.351 276.049 143.351C274.806 143.351 273.692 143.614 272.706 144.139C271.731 144.664 270.96 145.43 270.392 146.437C269.835 147.444 269.556 148.665 269.556 150.101ZM302.852 165.465C300.474 165.465 298.422 164.94 296.697 163.89C294.982 162.83 293.659 161.351 292.727 159.455C291.806 157.548 291.345 155.33 291.345 152.801C291.345 150.273 291.806 148.044 292.727 146.115C293.659 144.176 294.956 142.665 296.616 141.583C298.288 140.49 300.238 139.944 302.466 139.944C303.752 139.944 305.022 140.158 306.275 140.587C307.529 141.015 308.67 141.712 309.699 142.676C310.727 143.63 311.547 144.894 312.157 146.469C312.768 148.044 313.074 149.983 313.074 152.287V153.894H294.045V150.615H309.216C309.216 149.223 308.938 147.98 308.381 146.887C307.834 145.794 307.052 144.931 306.034 144.299C305.027 143.667 303.838 143.351 302.466 143.351C300.956 143.351 299.649 143.726 298.545 144.476C297.452 145.215 296.611 146.18 296.022 147.369C295.432 148.558 295.138 149.833 295.138 151.194V153.38C295.138 155.244 295.459 156.824 296.102 158.121C296.756 159.406 297.661 160.387 298.818 161.062C299.975 161.726 301.32 162.058 302.852 162.058C303.849 162.058 304.749 161.919 305.552 161.64C306.366 161.351 307.068 160.923 307.657 160.355C308.247 159.776 308.702 159.058 309.024 158.201L312.688 159.23C312.302 160.473 311.654 161.565 310.743 162.508C309.832 163.44 308.707 164.169 307.368 164.694C306.029 165.208 304.524 165.465 302.852 165.465ZM337.165 164.951L329.643 140.265H333.629L338.965 159.165H339.222L344.493 140.265H348.543L353.75 159.101H354.008L359.343 140.265H363.329L355.808 164.951H352.079L346.679 145.987H346.293L340.893 164.951H337.165ZM377.853 165.465C375.475 165.465 373.423 164.94 371.698 163.89C369.984 162.83 368.661 161.351 367.728 159.455C366.807 157.548 366.346 155.33 366.346 152.801C366.346 150.273 366.807 148.044 367.728 146.115C368.661 144.176 369.957 142.665 371.618 141.583C373.289 140.49 375.239 139.944 377.468 139.944C378.753 139.944 380.023 140.158 381.277 140.587C382.53 141.015 383.671 141.712 384.7 142.676C385.728 143.63 386.548 144.894 387.159 146.469C387.77 148.044 388.075 149.983 388.075 152.287V153.894H369.046V150.615H384.218C384.218 149.223 383.939 147.98 383.382 146.887C382.836 145.794 382.053 144.931 381.036 144.299C380.028 143.667 378.839 143.351 377.468 143.351C375.957 143.351 374.65 143.726 373.546 144.476C372.453 145.215 371.612 146.18 371.023 147.369C370.434 148.558 370.139 149.833 370.139 151.194V153.38C370.139 155.244 370.461 156.824 371.103 158.121C371.757 159.406 372.662 160.387 373.82 161.062C374.977 161.726 376.321 162.058 377.853 162.058C378.85 162.058 379.75 161.919 380.553 161.64C381.368 161.351 382.07 160.923 382.659 160.355C383.248 159.776 383.703 159.058 384.025 158.201L387.689 159.23C387.303 160.473 386.655 161.565 385.745 162.508C384.834 163.44 383.709 164.169 382.37 164.694C381.03 165.208 379.525 165.465 377.853 165.465ZM394.359 164.951V132.037H398.152V144.187H398.473C398.752 143.758 399.137 143.212 399.63 142.548C400.134 141.873 400.852 141.273 401.784 140.748C402.727 140.212 404.002 139.944 405.609 139.944C407.687 139.944 409.52 140.464 411.105 141.503C412.691 142.542 413.928 144.015 414.818 145.923C415.707 147.83 416.152 150.08 416.152 152.673C416.152 155.287 415.707 157.553 414.818 159.471C413.928 161.378 412.696 162.856 411.121 163.906C409.546 164.946 407.73 165.465 405.673 165.465C404.087 165.465 402.818 165.203 401.864 164.678C400.911 164.142 400.177 163.537 399.662 162.862C399.148 162.176 398.752 161.608 398.473 161.158H398.023V164.951H394.359ZM398.087 152.608C398.087 154.473 398.361 156.117 398.907 157.542C399.453 158.956 400.252 160.065 401.302 160.869C402.352 161.662 403.637 162.058 405.159 162.058C406.745 162.058 408.068 161.64 409.128 160.805C410.2 159.958 411.003 158.823 411.539 157.398C412.086 155.962 412.359 154.365 412.359 152.608C412.359 150.873 412.091 149.308 411.555 147.915C411.03 146.512 410.232 145.403 409.161 144.589C408.1 143.764 406.766 143.351 405.159 143.351C403.616 143.351 402.32 143.742 401.27 144.524C400.22 145.296 399.427 146.378 398.891 147.771C398.355 149.153 398.087 150.765 398.087 152.608Z" fill="white"/>
</svg>
