<svg width="177" height="178" viewBox="0 0 177 178" fill="none" xmlns="http://www.w3.org/2000/svg">
<path d="M88.4898 177.033C76.4106 177.033 64.9943 174.713 54.241 170.073C43.4876 165.433 34.0968 159.099 26.0685 151.07C18.0403 143.042 11.7061 133.651 7.06596 122.898C2.42579 112.145 0.105713 100.728 0.105713 88.6492C0.105713 76.4227 2.42579 64.9696 7.06596 54.2899C11.7061 43.6102 18.0403 34.2562 26.0685 26.228C34.0968 18.1997 43.4876 11.8655 54.241 7.22538C64.9943 2.58522 76.4106 0.265137 88.4898 0.265137C100.716 0.265137 112.169 2.58522 122.849 7.22538C133.529 11.8655 142.883 18.1997 150.911 26.228C158.939 34.2562 165.273 43.6102 169.914 54.2899C174.554 64.9696 176.874 76.4227 176.874 88.6492C176.874 100.728 174.554 112.145 169.914 122.898C165.273 133.651 158.939 143.042 150.911 151.07C142.883 159.099 133.529 165.433 122.849 170.073C112.169 174.713 100.716 177.033 88.4898 177.033ZM88.4898 158.915C92.3198 153.611 95.6342 148.087 98.433 142.343C101.232 136.598 103.515 130.484 105.283 124.003H71.6968C73.4645 130.484 75.7477 136.598 78.5466 142.343C81.3454 148.087 84.6598 153.611 88.4898 158.915ZM65.5099 155.379C62.8584 150.518 60.5383 145.473 58.5497 140.243C56.561 135.014 54.9038 129.6 53.5781 124.003H27.5048C31.7767 131.368 37.1165 137.776 43.5244 143.226C49.9322 148.677 57.2607 152.728 65.5099 155.379ZM111.47 155.379C119.719 152.728 127.047 148.677 133.455 143.226C139.863 137.776 145.203 131.368 149.475 124.003L123.401 124.003C122.076 129.6 120.419 135.014 118.43 140.243C116.441 145.473 114.121 150.518 111.47 155.379ZM19.9921 106.326H50.0427C49.6008 103.38 49.2693 100.471 49.0484 97.5981C48.8274 94.7256 48.7169 91.7426 48.7169 88.6492C48.7169 85.5558 48.8274 82.5728 49.0484 79.7003C49.2693 76.8278 49.6008 73.9185 50.0427 70.9724H19.9921C19.2556 73.9185 18.7032 76.8278 18.3349 79.7003C17.9667 82.5728 17.7825 85.5558 17.7825 88.6492C17.7825 91.7426 17.9667 94.7256 18.3349 97.5981C18.7032 100.471 19.2556 103.38 19.9921 106.326ZM67.7195 106.326H109.26C109.702 103.38 110.033 100.471 110.254 97.5981C110.475 94.7256 110.586 91.7426 110.586 88.6492C110.586 85.5558 110.475 82.5728 110.254 79.7003C110.033 76.8278 109.702 73.9185 109.26 70.9724H67.7195C67.2776 73.9185 66.9462 76.8278 66.7252 79.7003C66.5042 82.5728 66.3938 85.5558 66.3938 88.6492C66.3938 91.7426 66.5042 94.7256 66.7252 97.5981C66.9462 100.471 67.2776 103.38 67.7195 106.326ZM126.937 106.326L156.987 106.326C157.724 103.38 158.276 100.471 158.645 97.5981C159.013 94.7256 159.197 91.7426 159.197 88.6492C159.197 85.5558 159.013 82.5728 158.645 79.7003C158.276 76.8278 157.724 73.9185 156.987 70.9724L126.937 70.9724C127.379 73.9185 127.71 76.8278 127.931 79.7003C128.152 82.5728 128.263 85.5558 128.263 88.6492C128.263 91.7426 128.152 94.7256 127.931 97.5981C127.71 100.471 127.379 103.38 126.937 106.326ZM123.401 53.2956H149.475C145.203 45.9302 139.863 39.5224 133.455 34.072C127.047 28.6217 119.719 24.5708 111.47 21.9192C114.121 26.7804 116.441 31.8256 118.43 37.055C120.419 42.2844 122.076 47.6979 123.401 53.2956ZM71.6968 53.2956H105.283C103.515 46.8141 101.232 40.7008 98.433 34.9559C95.6342 29.2109 92.3198 23.6869 88.4898 18.3839C84.6598 23.6869 81.3454 29.2109 78.5466 34.9559C75.7477 40.7008 73.4645 46.8141 71.6968 53.2956ZM27.5048 53.2956H53.5781C54.9038 47.6979 56.561 42.2844 58.5497 37.055C60.5383 31.8256 62.8584 26.7804 65.5099 21.9192C57.2607 24.5708 49.9322 28.6217 43.5244 34.072C37.1165 39.5224 31.7767 45.9302 27.5048 53.2956Z" fill="#2F2F2F"/>
</svg>
