<svg width="108" height="21" viewBox="0 0 108 21" fill="none" xmlns="http://www.w3.org/2000/svg">
<g clip-path="url(#clip0_23_363)">
<path fill-rule="evenodd" clip-rule="evenodd" d="M34.5315 19.8783V20.848H16L16.0002 19.8783H34.5315ZM33.8 18.4238V19.6359H16.7315V18.4238H33.8ZM18.5189 5.3332L18.7224 5.43543L18.8242 7.0702L18.926 9.72654V12.2812L18.8242 15.4657L18.8073 17.6111L18.5189 17.6965H17.5012L17.1959 17.6111L17.0774 15.4657L16.9753 12.2982V9.74374L17.0774 7.0702L17.1704 5.42663L17.3827 5.3332H18.5189ZM33.1492 5.3332L33.3529 5.43543L33.4545 7.0702L33.5562 9.72654V12.2812L33.4545 15.4657L33.4378 17.6111L33.1492 17.6965H32.1315L31.8261 17.6111L31.7071 15.4657L31.6055 12.2982V9.74374L31.7071 7.0702L31.8006 5.42663L32.0127 5.3332H33.1492ZM22.9079 5.3332L23.1114 5.43543L23.2132 7.0702L23.3151 9.72654V12.2812L23.2132 15.4657L23.1965 17.6111L22.9079 17.6965H21.8901L21.5846 17.6111L21.466 15.4657L21.3644 12.2982V9.74374L21.466 7.0702L21.5595 5.42663L21.7713 5.3332H22.9079ZM28.5161 5.3332L28.7196 5.43543L28.8215 7.0702L28.9233 9.72654V12.2812L28.8215 15.4657L28.8047 17.6111L28.5161 17.6965H27.4983L27.193 17.6111L27.0742 15.4657L26.9726 12.2982V9.74374L27.0742 7.0702L27.1677 5.42663L27.3798 5.3332H28.5161ZM33.8 3.15143V4.84836H16.7315V3.15143H33.8ZM25.0902 0L34.0438 2.03845L33.6849 2.6666H16.5364L16 2.15718L25.0902 0Z" fill="white"/>
<mask id="mask0_23_363" style="mask-type:luminance" maskUnits="userSpaceOnUse" x="16" y="0" width="19" height="21">
<path fill-rule="evenodd" clip-rule="evenodd" d="M34.5315 19.8783V20.848H16L16.0002 19.8783H34.5315ZM33.8 18.4238V19.6359H16.7315V18.4238H33.8ZM18.5189 5.3332L18.7224 5.43543L18.8242 7.0702L18.926 9.72654V12.2812L18.8242 15.4657L18.8073 17.6111L18.5189 17.6965H17.5012L17.1959 17.6111L17.0774 15.4657L16.9753 12.2982V9.74374L17.0774 7.0702L17.1704 5.42663L17.3827 5.3332H18.5189ZM33.1492 5.3332L33.3529 5.43543L33.4545 7.0702L33.5562 9.72654V12.2812L33.4545 15.4657L33.4378 17.6111L33.1492 17.6965H32.1315L31.8261 17.6111L31.7071 15.4657L31.6055 12.2982V9.74374L31.7071 7.0702L31.8006 5.42663L32.0127 5.3332H33.1492ZM22.9079 5.3332L23.1114 5.43543L23.2132 7.0702L23.3151 9.72654V12.2812L23.2132 15.4657L23.1965 17.6111L22.9079 17.6965H21.8901L21.5846 17.6111L21.466 15.4657L21.3644 12.2982V9.74374L21.466 7.0702L21.5595 5.42663L21.7713 5.3332H22.9079ZM28.5161 5.3332L28.7196 5.43543L28.8215 7.0702L28.9233 9.72654V12.2812L28.8215 15.4657L28.8047 17.6111L28.5161 17.6965H27.4983L27.193 17.6111L27.0742 15.4657L26.9726 12.2982V9.74374L27.0742 7.0702L27.1677 5.42663L27.3798 5.3332H28.5161ZM33.8 3.15143V4.84836H16.7315V3.15143H33.8ZM25.0902 0L34.0438 2.03845L33.6849 2.6666H16.5364L16 2.15718L25.0902 0Z" fill="white"/>
</mask>
<g mask="url(#mask0_23_363)">
<path fill-rule="evenodd" clip-rule="evenodd" d="M16 0H34.5315V20.848H16V0Z" fill="white"/>
</g>
</g>
<g clip-path="url(#clip1_23_363)">
<path fill-rule="evenodd" clip-rule="evenodd" d="M43.9011 13.6234C43.9655 13.4017 44.0837 12.946 44.0837 12.8546C44.0837 12.3337 43.686 12.3208 43.2565 12.243V11.9568H45.2765L47.8978 20.7177H46.7809L45.9747 18.01H43.2348L42.4289 20.7177H41.7632L43.9011 13.6234ZM43.4174 17.3981H45.7918L44.5671 13.5968L43.4174 17.3981Z" fill="white"/>
<path fill-rule="evenodd" clip-rule="evenodd" d="M50.9822 13.7274C50.9822 12.4384 50.9602 12.4384 49.9612 12.243V11.9568H52.6042C53.4104 11.9568 55.6341 11.9568 55.6341 14.2872C55.6341 15.771 54.8393 16.2659 53.9904 16.4348L55.9674 20.7177H54.7322L52.8304 16.6691H52.1641V20.7177H50.9822V13.7274ZM52.1641 16.0575H52.7769C53.4748 16.0575 54.4528 15.8235 54.4528 14.3653C54.4528 12.959 53.7864 12.5684 52.8837 12.5684C52.1641 12.5684 52.1641 12.8027 52.1641 13.7404V16.0575Z" fill="white"/>
<path fill-rule="evenodd" clip-rule="evenodd" d="M63.2635 20.353C62.8986 20.5488 62.3072 20.848 61.2008 20.848C58.8691 20.848 58.031 19.1428 58.031 16.2137C58.031 13.8448 58.6323 11.9176 61.0287 11.9176C61.985 11.9176 62.6835 12.1127 63.1774 12.3081L63.2421 14.4826H62.9305C62.8875 13.8182 62.2963 12.5425 61.1361 12.5425C59.5568 12.5425 59.2987 14.586 59.2987 16.2137C59.2987 18.2703 59.8901 20.119 61.383 20.119C62.404 20.119 62.9305 19.7285 63.2635 19.4552V20.353Z" fill="white"/>
<path fill-rule="evenodd" clip-rule="evenodd" d="M66.4017 13.6756C66.4017 12.6462 66.3374 12.5292 65.3269 12.3995V12.1127L67.5834 11.8138V15.8491H70.5055V11.9568H71.6875V20.7177H70.5055V16.4607H67.5834V20.7177H66.4017V13.6756Z" fill="white"/>
<path fill-rule="evenodd" clip-rule="evenodd" d="M73.751 20.3926C74.5136 20.3926 74.664 20.1975 74.664 19.182V13.5838C74.664 12.5684 74.5136 12.3736 73.751 12.3736V12.0475H76.7592V12.3736C76.0068 12.3736 75.8462 12.5684 75.8462 13.5838V19.182C75.8462 20.1975 76.0068 20.3926 76.7592 20.3926V20.7177H73.751V20.3926Z" fill="white"/>
<path fill-rule="evenodd" clip-rule="evenodd" d="M80.1227 13.6234C79.7788 12.4384 79.682 12.4384 78.8225 12.243V11.9568H80.9069L83.0126 19.0906H83.034L85.0865 11.9568H85.7844L83.1634 20.7177H82.2287L80.1227 13.6234Z" fill="white"/>
<path fill-rule="evenodd" clip-rule="evenodd" d="M88.8686 13.7274C88.8686 12.4384 88.8364 12.4384 87.8479 12.243V11.9568H92.9947L93.0268 13.8833H92.7257C92.7257 12.842 92.2748 12.5684 91.5655 12.5684H90.7274C90.1904 12.5684 90.0508 12.6203 90.0508 13.2455V15.8361H91.351C92.0916 15.8361 92.1671 15.2638 92.2318 14.8343H92.5323V17.5676H92.2318C92.2318 16.8646 91.9953 16.4478 91.351 16.4478H90.0508V19.3509C90.0508 20.0798 90.1904 20.1061 90.7274 20.1061H91.9204C92.5323 20.1061 92.8223 19.8455 92.887 18.8303H93.1881L93.1553 20.7177H88.8686V13.7274Z" fill="white"/>
<path fill-rule="evenodd" clip-rule="evenodd" d="M42.8443 6.87738V1.54875C42.8443 0.582419 42.6659 0.396083 41.7632 0.396083V0.0866394H45.3251V0.396083C44.4348 0.396083 44.244 0.582419 44.244 1.54875V6.87738C44.244 7.84402 44.4348 8.02914 45.3251 8.02914V8.33919H41.7632V8.02914C42.6659 8.02914 42.8443 7.84402 42.8443 6.87738Z" fill="white"/>
<path fill-rule="evenodd" clip-rule="evenodd" d="M48.6589 1.58582C48.6589 0.433465 48.4811 0.483316 47.387 0.272663V0H50.0713L54.0785 6.74089H54.1039V0H54.9055V8.33918H53.6839L49.4862 1.28915H49.4605V8.33918H48.6589V1.58582Z" fill="white"/>
<path fill-rule="evenodd" clip-rule="evenodd" d="M59.5754 0.582411H58.6975C57.6927 0.582411 57.4002 0.892159 57.3235 1.79739H56.9675L57.0182 0H63.5317L63.5827 1.83417H63.2265C63.2265 0.88 62.8192 0.582411 61.8398 0.582411H60.9751V8.33918H59.5754V0.582411Z" fill="white"/>
<path fill-rule="evenodd" clip-rule="evenodd" d="M66.8537 1.68522C66.8537 0.45839 66.815 0.45839 65.6445 0.272663V0H71.738L71.7764 1.83417H71.4201C71.4201 0.842612 70.886 0.582411 70.0467 0.582411H69.054C68.4179 0.582411 68.2524 0.632263 68.2524 1.22714V3.69296H69.7919C70.6695 3.69296 70.7583 3.14733 70.835 2.73818H71.1916V5.3408H70.835C70.835 4.67175 70.5554 4.27537 69.7919 4.27537H68.2524V7.03848C68.2524 7.73245 68.4179 7.75677 69.054 7.75677H70.4661C71.1916 7.75677 71.5345 7.50903 71.6106 6.5427H71.9675L71.9291 8.33918H66.8537V1.68522Z" fill="white"/>
<path fill-rule="evenodd" clip-rule="evenodd" d="M75.2372 1.68522C75.2372 0.45839 75.2119 0.45839 74.0293 0.272663V0H77.1583C78.1126 0 80.7456 0 80.7456 2.21809C80.7456 3.63095 79.8049 4.1018 78.7995 4.26291L81.1402 8.33918H79.6771L77.4258 4.48542H76.6369V8.33918H75.2372V1.68522ZM76.6369 3.90301H77.3624C78.1887 3.90301 79.3469 3.6805 79.3469 2.29286C79.3469 0.953866 78.558 0.582411 77.4892 0.582411C76.6369 0.582411 76.6369 0.805223 76.6369 1.69829V3.90301Z" fill="white"/>
<path fill-rule="evenodd" clip-rule="evenodd" d="M84.4744 1.58582C84.4744 0.433465 84.296 0.483316 83.2021 0.272663V0H85.8861L89.8931 6.74089H89.9188V0H90.7203V8.33918H89.4994L85.301 1.28915H85.2757V8.33918H84.4744V1.58582Z" fill="white"/>
<path fill-rule="evenodd" clip-rule="evenodd" d="M93.9908 1.68522C93.9908 0.45839 93.9527 0.45839 92.7822 0.272663V0H98.8757L98.9141 1.83417H98.5578C98.5578 0.842612 98.0231 0.582411 97.1838 0.582411H96.1914C95.5556 0.582411 95.3901 0.632263 95.3901 1.22714V3.69296H96.9293C97.8072 3.69296 97.8957 3.14733 97.9724 2.73818H98.329V5.3408H97.9724C97.9724 4.67175 97.6928 4.27537 96.9293 4.27537H95.3901V7.03848C95.3901 7.73245 95.5556 7.75677 96.1914 7.75677H97.6034C98.329 7.75677 98.6722 7.50903 98.7486 6.5427H99.1049L99.0665 8.33918H93.9908V1.68522Z" fill="white"/>
<path fill-rule="evenodd" clip-rule="evenodd" d="M103.774 0.582411H102.897C101.892 0.582411 101.599 0.892159 101.523 1.79739H101.167L101.218 0H107.731L107.782 1.83417H107.426C107.426 0.88 107.019 0.582411 106.039 0.582411H105.174V8.33918H103.774V0.582411Z" fill="white"/>
</g>
<defs>
<clipPath id="clip0_23_363">
<rect width="18.7632" height="20.848" fill="white" transform="translate(16)"/>
</clipPath>
<clipPath id="clip1_23_363">
<rect width="66.0185" height="20.848" fill="white" transform="translate(41.7632)"/>
</clipPath>
</defs>
</svg>
