<svg width="92" height="21" viewBox="0 0 92 21" fill="none" xmlns="http://www.w3.org/2000/svg">
<g clip-path="url(#clip0_65_358)">
<path fill-rule="evenodd" clip-rule="evenodd" d="M18.5315 19.8783V20.848H0L0.000197144 19.8783H18.5315ZM17.8 18.4238V19.6359H0.731507V18.4238H17.8ZM2.51891 5.3332L2.72237 5.43543L2.8242 7.0702L2.92603 9.72654V12.2812L2.8242 15.4657L2.80726 17.6111L2.51891 17.6965H1.50122L1.19594 17.6111L1.07736 15.4657L0.975343 12.2982V9.74374L1.07736 7.0702L1.17043 5.42663L1.38265 5.3332H2.51891ZM17.1492 5.3332L17.3529 5.43543L17.4545 7.0702L17.5562 9.72654V12.2812L17.4545 15.4657L17.4378 17.6111L17.1492 17.6965H16.1315L15.8261 17.6111L15.7071 15.4657L15.6055 12.2982V9.74374L15.7071 7.0702L15.8006 5.42663L16.0127 5.3332H17.1492ZM6.90791 5.3332L7.1114 5.43543L7.21323 7.0702L7.31507 9.72654V12.2812L7.21323 15.4657L7.19649 17.6111L6.90791 17.6965H5.89012L5.58461 17.6111L5.46603 15.4657L5.36439 12.2982V9.74374L5.46603 7.0702L5.55949 5.42663L5.77135 5.3332H6.90791ZM12.5161 5.3332L12.7196 5.43543L12.8215 7.0702L12.9233 9.72654V12.2812L12.8215 15.4657L12.8047 17.6111L12.5161 17.6965H11.4983L11.193 17.6111L11.0742 15.4657L10.9726 12.2982V9.74374L11.0742 7.0702L11.1677 5.42663L11.3798 5.3332H12.5161ZM17.8 3.15143V4.84836H0.731507V3.15143H17.8ZM9.09018 0L18.0438 2.03845L17.6849 2.6666H0.536435L0 2.15718L9.09018 0Z" fill="white"/>
<mask id="mask0_65_358" style="mask-type:luminance" maskUnits="userSpaceOnUse" x="0" y="0" width="19" height="21">
<path fill-rule="evenodd" clip-rule="evenodd" d="M18.5315 19.8783V20.848H0L0.000197144 19.8783H18.5315ZM17.8 18.4238V19.6359H0.731507V18.4238H17.8ZM2.51891 5.3332L2.72237 5.43543L2.8242 7.0702L2.92603 9.72654V12.2812L2.8242 15.4657L2.80726 17.6111L2.51891 17.6965H1.50122L1.19594 17.6111L1.07736 15.4657L0.975343 12.2982V9.74374L1.07736 7.0702L1.17043 5.42663L1.38265 5.3332H2.51891ZM17.1492 5.3332L17.3529 5.43543L17.4545 7.0702L17.5562 9.72654V12.2812L17.4545 15.4657L17.4378 17.6111L17.1492 17.6965H16.1315L15.8261 17.6111L15.7071 15.4657L15.6055 12.2982V9.74374L15.7071 7.0702L15.8006 5.42663L16.0127 5.3332H17.1492ZM6.90791 5.3332L7.1114 5.43543L7.21323 7.0702L7.31507 9.72654V12.2812L7.21323 15.4657L7.19649 17.6111L6.90791 17.6965H5.89012L5.58461 17.6111L5.46603 15.4657L5.36439 12.2982V9.74374L5.46603 7.0702L5.55949 5.42663L5.77135 5.3332H6.90791ZM12.5161 5.3332L12.7196 5.43543L12.8215 7.0702L12.9233 9.72654V12.2812L12.8215 15.4657L12.8047 17.6111L12.5161 17.6965H11.4983L11.193 17.6111L11.0742 15.4657L10.9726 12.2982V9.74374L11.0742 7.0702L11.1677 5.42663L11.3798 5.3332H12.5161ZM17.8 3.15143V4.84836H0.731507V3.15143H17.8ZM9.09018 0L18.0438 2.03845L17.6849 2.6666H0.536435L0 2.15718L9.09018 0Z" fill="white"/>
</mask>
<g mask="url(#mask0_65_358)">
<path fill-rule="evenodd" clip-rule="evenodd" d="M0 0H18.5315V20.848H0V0Z" fill="white"/>
</g>
</g>
<g clip-path="url(#clip1_65_358)">
<path fill-rule="evenodd" clip-rule="evenodd" d="M27.9011 13.6234C27.9655 13.4017 28.0837 12.946 28.0837 12.8546C28.0837 12.3337 27.686 12.3208 27.2565 12.243V11.9568H29.2765L31.8978 20.7177H30.7809L29.9747 18.01H27.2348L26.4289 20.7177H25.7632L27.9011 13.6234ZM27.4174 17.3981H29.7918L28.5671 13.5968L27.4174 17.3981Z" fill="white"/>
<path fill-rule="evenodd" clip-rule="evenodd" d="M34.9822 13.7274C34.9822 12.4384 34.9602 12.4384 33.9612 12.243V11.9568H36.6042C37.4104 11.9568 39.6341 11.9568 39.6341 14.2872C39.6341 15.771 38.8393 16.2659 37.9904 16.4348L39.9674 20.7177H38.7322L36.8304 16.6691H36.1641V20.7177H34.9822V13.7274ZM36.1641 16.0575H36.7769C37.4748 16.0575 38.4528 15.8235 38.4528 14.3653C38.4528 12.959 37.7864 12.5684 36.8837 12.5684C36.1641 12.5684 36.1641 12.8027 36.1641 13.7404V16.0575Z" fill="white"/>
<path fill-rule="evenodd" clip-rule="evenodd" d="M47.2635 20.353C46.8986 20.5488 46.3072 20.848 45.2008 20.848C42.8691 20.848 42.031 19.1428 42.031 16.2137C42.031 13.8448 42.6323 11.9176 45.0287 11.9176C45.985 11.9176 46.6835 12.1127 47.1774 12.3081L47.2421 14.4826H46.9305C46.8875 13.8182 46.2963 12.5425 45.1361 12.5425C43.5568 12.5425 43.2987 14.586 43.2987 16.2137C43.2987 18.2703 43.8901 20.119 45.383 20.119C46.404 20.119 46.9305 19.7285 47.2635 19.4552V20.353Z" fill="white"/>
<path fill-rule="evenodd" clip-rule="evenodd" d="M50.4017 13.6756C50.4017 12.6462 50.3374 12.5292 49.3269 12.3995V12.1127L51.5834 11.8138V15.8491H54.5055V11.9568H55.6875V20.7177H54.5055V16.4607H51.5834V20.7177H50.4017V13.6756Z" fill="white"/>
<path fill-rule="evenodd" clip-rule="evenodd" d="M57.751 20.3926C58.5136 20.3926 58.664 20.1975 58.664 19.182V13.5838C58.664 12.5684 58.5136 12.3736 57.751 12.3736V12.0475H60.7592V12.3736C60.0068 12.3736 59.8462 12.5684 59.8462 13.5838V19.182C59.8462 20.1975 60.0068 20.3926 60.7592 20.3926V20.7177H57.751V20.3926Z" fill="white"/>
<path fill-rule="evenodd" clip-rule="evenodd" d="M64.1227 13.6234C63.7788 12.4384 63.682 12.4384 62.8225 12.243V11.9568H64.9069L67.0126 19.0906H67.034L69.0865 11.9568H69.7844L67.1634 20.7177H66.2287L64.1227 13.6234Z" fill="white"/>
<path fill-rule="evenodd" clip-rule="evenodd" d="M72.8686 13.7274C72.8686 12.4384 72.8364 12.4384 71.8479 12.243V11.9568H76.9947L77.0268 13.8833H76.7257C76.7257 12.842 76.2748 12.5684 75.5655 12.5684H74.7274C74.1904 12.5684 74.0508 12.6203 74.0508 13.2455V15.8361H75.351C76.0916 15.8361 76.1671 15.2638 76.2318 14.8343H76.5323V17.5676H76.2318C76.2318 16.8646 75.9953 16.4478 75.351 16.4478H74.0508V19.3509C74.0508 20.0798 74.1904 20.1061 74.7274 20.1061H75.9204C76.5323 20.1061 76.8223 19.8455 76.887 18.8303H77.1881L77.1553 20.7177H72.8686V13.7274Z" fill="white"/>
<path fill-rule="evenodd" clip-rule="evenodd" d="M26.8443 6.87738V1.54875C26.8443 0.582419 26.6659 0.396083 25.7632 0.396083V0.0866394H29.3251V0.396083C28.4348 0.396083 28.244 0.582419 28.244 1.54875V6.87738C28.244 7.84402 28.4348 8.02914 29.3251 8.02914V8.33919H25.7632V8.02914C26.6659 8.02914 26.8443 7.84402 26.8443 6.87738Z" fill="white"/>
<path fill-rule="evenodd" clip-rule="evenodd" d="M32.6589 1.58583C32.6589 0.433472 32.4811 0.483324 31.387 0.272671V7.62939e-06H34.0713L38.0785 6.7409H38.1039V7.62939e-06H38.9055V8.33919H37.6839L33.4862 1.28915H33.4605V8.33919H32.6589V1.58583Z" fill="white"/>
<path fill-rule="evenodd" clip-rule="evenodd" d="M43.5754 0.582419H42.6975C41.6927 0.582419 41.4002 0.892167 41.3235 1.7974H40.9675L41.0182 7.62939e-06H47.5317L47.5827 1.83418H47.2265C47.2265 0.880008 46.8192 0.582419 45.8398 0.582419H44.9751V8.33919H43.5754V0.582419Z" fill="white"/>
<path fill-rule="evenodd" clip-rule="evenodd" d="M50.8537 1.68523C50.8537 0.458398 50.815 0.458398 49.6445 0.272671V7.62939e-06H55.738L55.7764 1.83418H55.4201C55.4201 0.842619 54.886 0.582419 54.0467 0.582419H53.054C52.4179 0.582419 52.2524 0.63227 52.2524 1.22714V3.69297H53.7919C54.6695 3.69297 54.7583 3.14734 54.835 2.73819H55.1916V5.3408H54.835C54.835 4.67176 54.5554 4.27538 53.7919 4.27538H52.2524V7.03849C52.2524 7.73246 52.4179 7.75678 53.054 7.75678H54.4661C55.1916 7.75678 55.5345 7.50904 55.6106 6.54271H55.9675L55.9291 8.33919H50.8537V1.68523Z" fill="white"/>
<path fill-rule="evenodd" clip-rule="evenodd" d="M59.2372 1.68523C59.2372 0.458398 59.2119 0.458398 58.0293 0.272671V7.62939e-06H61.1583C62.1126 7.62939e-06 64.7456 7.62939e-06 64.7456 2.21809C64.7456 3.63096 63.8049 4.10181 62.7995 4.26292L65.1402 8.33919H63.6771L61.4258 4.48543H60.6369V8.33919H59.2372V1.68523ZM60.6369 3.90301H61.3624C62.1887 3.90301 63.3469 3.68051 63.3469 2.29287C63.3469 0.953873 62.558 0.582419 61.4892 0.582419C60.6369 0.582419 60.6369 0.805231 60.6369 1.6983V3.90301Z" fill="white"/>
<path fill-rule="evenodd" clip-rule="evenodd" d="M68.4744 1.58583C68.4744 0.433472 68.296 0.483324 67.2021 0.272671V7.62939e-06H69.8861L73.8931 6.7409H73.9188V7.62939e-06H74.7203V8.33919H73.4994L69.301 1.28915H69.2757V8.33919H68.4744V1.58583Z" fill="white"/>
<path fill-rule="evenodd" clip-rule="evenodd" d="M77.9908 1.68523C77.9908 0.458398 77.9527 0.458398 76.7822 0.272671V7.62939e-06H82.8757L82.9141 1.83418H82.5578C82.5578 0.842619 82.0231 0.582419 81.1838 0.582419H80.1914C79.5556 0.582419 79.3901 0.63227 79.3901 1.22714V3.69297H80.9293C81.8072 3.69297 81.8957 3.14734 81.9724 2.73819H82.329V5.3408H81.9724C81.9724 4.67176 81.6928 4.27538 80.9293 4.27538H79.3901V7.03849C79.3901 7.73246 79.5556 7.75678 80.1914 7.75678H81.6034C82.329 7.75678 82.6722 7.50904 82.7486 6.54271H83.1049L83.0665 8.33919H77.9908V1.68523Z" fill="white"/>
<path fill-rule="evenodd" clip-rule="evenodd" d="M87.7744 0.582419H86.897C85.8919 0.582419 85.5994 0.892167 85.5227 1.7974H85.1667L85.2178 7.62939e-06H91.7306L91.7816 1.83418H91.4257C91.4257 0.880008 91.0187 0.582419 90.0387 0.582419H89.1737V8.33919H87.7744V0.582419Z" fill="white"/>
</g>
<defs>
<clipPath id="clip0_65_358">
<rect width="18.7632" height="20.848" fill="white"/>
</clipPath>
<clipPath id="clip1_65_358">
<rect width="66.0185" height="20.848" fill="white" transform="translate(25.7632)"/>
</clipPath>
</defs>
</svg>
